<svg width="2626" height="724" xmlns="http://www.w3.org/2000/svg" xmlns:xlink="http://www.w3.org/1999/xlink" xml:space="preserve" overflow="hidden"><defs><clipPath id="clip0"><rect x="140" y="1238" width="2626" height="724"/></clipPath></defs><g clip-path="url(#clip0)" transform="translate(-140 -1238)"><g><g><g><path d="M402.257 11.5767C409.478 10.5129 415.786 14.8683 422.895 15.0435 428.927 16.4953 435.035 13.1662 441.017 15.2813 450.066 18.2349 459.502 19.7368 468.939 20.9633 474.383 21.7768 479.364 24.3299 484.733 25.4062 495.809 26.6578 507.048 28.4475 517.073 33.6038 520.69 35.6939 524.745 36.645 528.8 37.4961 532.83 38.2595 535.133 42.1643 538.9 43.5035 543.806 45.4559 549.05 46.8576 553.305 50.1491 558.9 54.467 566.046 56.1565 571.427 60.7872 577.935 66.3315 585.332 70.6368 592.916 74.5166 598.536 78.0459 605.807 79.2099 610.025 84.7041 614.518 89.2847 619.336 93.6151 623.028 98.9216 625.919 103.264 630.412 106.055 634.48 109.172 637.546 111.5 639.273 115.066 641.889 117.82 651.601 126.906 660.574 136.868 668.084 147.857 675.768 157.556 685.73 165.266 693.377 175.003 699.134 186.917 708.221 196.804 715.129 208.056 718.345 214.889 720.899 222.085 725.029 228.456 727.031 231.122 726.28 234.588 726.631 237.692 726.944 243.412 729.972 248.393 732.175 253.524 733.389 259.844 733.502 266.327 734.065 272.735 736.906 278.805 739.496 284.988 741.874 291.258 745.003 300.557 743.138 310.544 745.617 319.956 746.392 326.777 748.12 333.535 747.832 340.443 747.581 345.888 749.133 351.194 748.971 356.638 748.996 366.25 749.271 375.912 747.907 385.461 748.207 394.335 746.555 403.045 745.379 411.781 745.992 418.139 740.886 422.945 740.16 429.04 739.409 435.147 736.217 440.529 734.928 446.499 733.639 450.491 733.627 454.934 731.324 458.551 728.47 463.883 725.529 469.415 724.879 475.535 724.378 479.64 721.399 482.831 720.523 486.836 719.547 490.991 716.543 494.333 715.742 498.538 715.429 500.628 715.617 502.781 715.242 504.871 712.301 511.303 706.506 515.709 703.002 521.779 697.933 530.677 690.949 538.274 685.518 546.947 682.752 551.528 677.883 554.269 674.98 558.724 671.175 564.782 665.243 569.062 661.138 574.907 657.571 580.151 651.013 582.203 647.521 587.485 643.491 593.066 637.271 596.358 632.653 601.339 624.443 609.875 615.882 618.047 607.522 626.407 600.826 635.444 588.599 636.933 580.626 644.43 578.286 646.657 576.121 649.185 573.13 650.575 565.558 654.342 559.525 660.512 552.029 664.404 547.448 666.77 543.343 669.924 538.85 672.389 532.192 674.091 525.308 675.468 519.551 679.46 512.267 682.927 505.108 687.232 496.973 688.296 492.493 688.872 488.676 691.437 484.445 692.839 476.01 695.367 468.488 700.311 459.765 702.013 448.476 706.881 436.136 707.895 424.184 710.085 416.149 709.547 408.277 711.149 400.38 712.326 387.739 712.914 374.998 711.913 362.408 713.327 358.003 714.729 353.685 712.438 349.254 712.689 335.337 713.302 321.633 710.185 307.841 708.934 298.329 709.297 288.955 707.783 279.531 706.931 267.454 705.755 256.44 699.873 244.325 698.872 239.557 697.532 234.576 698.296 229.77 697.582 227.592 695.53 226.241 692.739 223.888 690.887 219.645 688.722 215.102 686.932 210.334 686.369 202.036 685.53 196.592 678.296 189.007 675.643 184.639 674.154 180.322 672.376 176.855 669.235 170.585 663.929 162.012 662.965 155.491 658.134 152.412 656.094 148.946 654.73 145.942 652.59 139.421 647.283 132.363 642.677 126.08 637.071 118.696 634.18 110.561 632.002 105.092 625.807 99.272 619.311 90.9368 615.982 84.9669 609.699 82.3512 607.209 78.9095 605.494 77.0197 602.315 75.3426 598.911 75.0172 594.881 72.6268 591.815 65.3804 582.253 60.2741 571.215 52.477 562.041 49.7987 559.087 48.2468 555.345 47.4709 551.478 46.8201 547.21 43.8038 543.781 43.1906 539.501 42.4897 533.155 37.3709 528.775 34.7803 523.231 31.764 519.101 32.0394 513.819 30.4875 509.151 29.2359 505.259 28.5226 501.254 27.7091 497.274 26.833 493.006 24.3049 489.189 24.2423 484.758 23.7417 477.575 23.1034 470.065 18.6354 464.12 17.6968 456.524 16.8457 448.864 14.8057 441.468 13.3664 436.487 15.3313 431.23 13.867 426.261 12.6656 421.931 11.6643 417.501 11.6894 412.983 11.5642 409.378 13.3289 406.099 13.9296 402.62 15.0435 395.273 14.0423 387.839 14.4803 380.468 14.8432 373.784 14.0673 367.114 14.0673 360.431 14.3551 346.251 19.136 332.759 22.0771 319.03 23.3162 313.798 22.9157 308.392 23.6916 303.11 25.2936 297.315 26.7704 291.383 29.699 286.077 32.928 279.431 34.4549 272.097 37.834 265.501 41.3633 258.568 43.6912 251.109 47.3207 244.225 49.7361 239.332 50.825 233.85 53.8287 229.232 56.094 225.64 56.507 221.285 58.4093 217.53 61.2127 212.161 65.105 207.455 68.1838 202.249 72.3514 195.515 79.6854 190.609 80.7868 182.274 85.3299 176.805 91.8504 173.288 96.0431 167.468 100.699 162.024 102.088 154.64 106.418 149.021 113.127 143.802 119.947 138.545 125.317 131.875 130.072 124.478 138.082 119.972 142.863 112.601 146.042 107.457 152.362 105.692 155.954 100.912 163.851 93.2772 170.422 84.0533 180.009 78.3839 183.701 75.8182 187.205 72.9772 191.097 70.6994 196.967 67.095 200.346 60.2866 207.017 57.8711 214.126 54.9801 219.708 49.4358 226.566 46.0816 232.736 42.6149 239.607 40.7 246.465 39.1356 255.689 36.7577 264.7 33.5913 274.012 31.5137 281.321 29.7991 287.729 25.2936 295.25 24.3925 301.208 23.4288 306.689 20.4376 312.822 20.35 320.181 18.6855 328.141 21.0884 335.099 17.6217 340.181 14.668 346.188 15.9321 351.72 14.7181 357.339 13.5792 362.921 16.708 368.465 14.9309 373.622 13.1412 378.891 15.4815 384.047 15.2688 389.892 13.041 395.887 11.1011 402.257 11.5767M287.253 250.596C273.649 252.485 260.02 257.041 249.281 265.852 244.263 270.42 238.205 262.56 232.648 265.426 228.869 267.241 226.153 270.645 222.486 272.66 219.783 274.262 216.704 275.088 213.925 276.552 211.885 278.292 210.371 280.645 208.006 282.009 201.648 285.751 196.441 291.083 191.473 296.464 185.365 304.95 178.957 313.172 172.787 321.595 169.734 325.075 170.785 329.943 170.848 334.161 171.398 342.834 170.447 352.496 175.766 359.967 179.646 363.634 185.303 364.26 189.758 367.039 194.539 369.579 198.369 373.709 203.525 375.562 207.981 377.376 212.461 379.129 216.829 381.156 224.664 385.073 230.834 391.431 237.905 396.475 242.573 399.892 246.616 404.522 252.385 406.087 257.191 407.363 259.97 411.706 263.286 415.01 268.28 420.404 275.464 424.134 278.142 431.368 281.008 438.664 284.45 445.723 288.117 452.656 290.019 455.948 290.032 459.94 289.268 463.57 287.128 467.112 283.298 469.189 280.908 472.543 277.754 477.249 272.122 479.752 266.59 480.053 260.833 480.29 256.002 483.982 250.458 484.996 244.926 483.995 239.932 480.503 234.138 480.991 229.119 480.829 224.088 481.855 219.082 481.141 215.277 479.539 212.211 476.486 208.218 475.234 201.948 472.493 194.927 473.244 188.469 471.329 183.288 470.14 178.144 468.451 172.775 468.664 169.258 468.751 165.103 467.512 162.299 470.341 156.492 475.384 148.708 478.476 144.79 485.434 143.414 488 141.374 490.578 141.824 493.669 142.237 499.376 142.563 505.096 142.2 510.815 141.637 515.609 144.453 519.927 147.331 523.481 151.311 526.134 155.979 527.473 160.172 529.739 164.577 532.354 169.846 531.015 174.627 532.092 179.32 533.068 183.363 535.859 187.918 537.26 193.763 537.561 199.495 535.746 205.277 535.058 208.594 535.321 211.86 536.785 215.227 535.884 220.196 534.732 225.289 535.308 230.296 535.884 236.879 534.394 243.637 535.058 250.308 534.595 257.416 533.03 264.3 530.627 271.171 528.299 275.839 526.61 281.358 529.025 285.589 526.047 290.019 523.143 293.911 518.675 299.518 518.25 303.523 517.436 308.179 518.224 311.483 515.333 318.817 508.763 326.727 502.117 330.456 492.731 331.933 486.974 333.247 481.104 335.988 475.785 337.265 473.082 339.392 470.441 338.791 467.274 338.178 462.131 338.291 456.949 338.591 451.793 338.967 445.135 337.89 438.539 336.952 431.968 336.113 429.278 334.211 427.1 333.134 424.522 331.107 419.365 331.658 413.458 328.879 408.565 326.063 402.858 321.307 398.352 318.829 392.457 317.152 389.066 316.451 384.685 312.609 382.996 306.489 379.567 300.795 374.898 297.553 368.566 294.85 364.435 292.56 360.043 289.806 355.963 284.262 351.457 278.555 347.114 272.885 342.759 268.793 339.292 262.435 340.656 258.655 336.827 255.99 332.183 254.663 326.952 253.349 321.808 252.498 318.416 250.433 315.263 250.783 311.646 249.857 305.138 256.453 300.895 256.04 294.424 259.306 294.825 262.648 294.424 265.877 294.988 268.718 297.09 270.733 300.257 274.062 301.721 278.855 303.911 283.962 305.388 289.18 306.151 294.862 306.865 299.668 310.732 305.45 310.932 309.53 311.195 313.535 312.034 317.49 313.047 322.446 314.099 325.475 319.242 330.656 319.718 334.699 320.169 338.804 320.093 342.871 319.931 344.736 319.968 346.564 319.217 347.79 317.791 352.058 312.597 354.023 305.876 358.616 300.907 361.106 297.741 364.385 294.837 364.999 290.632 365.937 286.027 367.564 281.433 367.226 276.678 366.5 273.887 363.985 272.009 362.345 269.732 358.728 265.664 355.975 260.27 350.731 258.092 346.163 257.654 341.495 258.993 336.952 257.942 331.87 256.465 329.755 250.958 325.337 248.543 321.332 247.905 317.252 248.881 313.248 248.28 304.612 245.89 295.688 248.531 287.253 250.596M538.537 250.082C535.508 250.883 532.467 251.647 529.463 252.523 524.495 254.125 520.74 257.955 516.247 260.408 508.926 262.372 501.416 264.175 494.883 268.18 491.204 270.42 486.373 271.121 483.795 274.863 480.14 279.882 476.386 284.888 471.792 289.093 468.589 291.796 468.15 296.214 465.86 299.531 464.083 302.109 462.493 304.812 461.154 307.653 458.726 312.797 453.17 315.751 451.205 321.17 449.315 327.916 446.023 334.211 445.473 341.269 441.005 348.816 441.242 357.752 438.151 365.775 435.748 372.821 435.172 380.318 433.082 387.439 428.289 402.833 433.758 419.34 429.065 434.734 428.352 438.239 428.139 441.881 428.602 445.435 428.952 448.476 431.28 450.729 432.294 453.533 433.107 456.887 433.621 460.303 434.359 463.682 435.535 468.576 434.008 473.67 435.285 478.563 436.699 484.208 437.5 490.228 440.729 495.221 442.757 498.575 446.474 500.34 448.927 503.319 450.491 505.296 451.643 507.561 453.257 509.501 455.91 509.964 458.639 509.752 461.28 510.377 465.81 512.968 469.352 517.098 474.17 519.238 478.163 520.84 482.506 521.216 486.748 521.516 490.928 522.279 494.996 523.881 499.326 523.644 506.735 523.318 514.082 526.259 521.453 524.47 527.273 523.193 533.306 523.393 539.175 524.107 547.911 525.659 556.872 525.308 565.645 524.194 573.192 524.007 580.739 523.982 588.273 523.656 594.456 523.781 600.125 520.978 605.907 519.176 613.054 517.186 619.924 512.63 623.216 505.797 625.018 502.267 628.885 499.076 627.484 494.696 625.869 487.199 625.957 478.876 621.514 472.331 618.886 468.388 613.692 470.654 609.875 469.427 604.43 467.412 599.287 463.845 593.304 463.795 588.148 464.896 583.38 467.324 578.549 469.389 571.803 472.706 563.993 472.393 557.085 475.222 549.413 477.912 541.828 473.795 534.357 472.581 527.849 472.781 521.453 470.916 515.809 467.75 513.619 465.885 512.23 463.219 509.864 461.542 506.998 459.49 503.757 457.562 502.155 454.283 498.613 445.498 500.753 435.948 499.864 426.775 500.365 415.598 502.055 404.485 502.618 393.308 504.307 386.15 507.611 379.254 507.436 371.744 507.048 364.21 510.74 357.477 513.681 350.819 516.773 345.049 521.779 340.656 526.81 336.626 530.039 334.023 531.341 328.692 536.021 328.316 541.553 327.628 547.085 326.001 552.642 325.938 556.597 328.391 561.027 329.455 565.695 328.929 572.366 328.279 578.799 330.131 585.157 331.87 589.124 332.884 592.691 335.638 596.971 335.062 605.256 333.109 609.937 342.959 617.985 342.671 621.714 342.584 623.366 338.704 625.469 336.238 629.824 331.32 631.289 324.386 631.276 318.003 628.347 312.534 627.621 306.427 627.546 300.307 625.294 293.498 619.975 288.067 613.83 284.525 609.837 282.31 607.034 278.542 603.191 276.177 600.075 275.852 596.909 276.29 593.842 275.676 590.088 272.748 586.196 270.032 582.203 267.466 575.532 261.934 567.56 257.354 558.737 256.853 552.892 252.811 546.059 248.067 538.537 250.082Z" fill="#1A2F93" transform="matrix(1.00042 0 0 1 140 1238.31)"/></g></g></g><path d="M1198.77 1443.05C1202.59 1435.46 1209.24 1428.41 1218.1 1427.34 1225.46 1425.85 1232.9 1429.46 1237.38 1435.22 1244.5 1444.32 1248.11 1455.6 1250.75 1466.7 1254.83 1485.65 1256.88 1504.97 1259.63 1524.16 1266.14 1572.08 1274.47 1619.82 1286.63 1666.68 1292.8 1690.49 1300.37 1713.94 1306.04 1737.88 1307.25 1743.85 1309.02 1750.11 1307.25 1756.15 1303.75 1768.54 1287.95 1775.91 1276.37 1769.83 1268.29 1765.58 1264.13 1756.82 1261.12 1748.64 1254.99 1731.24 1252.46 1712.87 1248.38 1694.94 1236.28 1643.72 1228.4 1591.64 1219.43 1539.83 1203.85 1584.73 1188.98 1629.87 1174.17 1675.02 1166.57 1698.59 1160.56 1722.88 1149.14 1745.02 1145.5 1752.14 1140.32 1759.23 1132.42 1761.93 1124.78 1764.87 1115.35 1763.65 1109.58 1757.58 1102.09 1749.67 1099.05 1738.85 1095.92 1728.7 1088.2 1698.99 1079.47 1669.54 1072.34 1639.64 1064.46 1607.83 1057.91 1575.69 1051.07 1543.64 1041.2 1593.17 1027.92 1641.95 1016.38 1691.1 1013.67 1710.31 1010.45 1729.47 1005.87 1748.32 1004.42 1754.68 1001.14 1760.79 995.722 1764.63 986.687 1770.92 972.677 1768.66 966.428 1759.44 960.617 1751.66 962.05 1741.45 962.448 1732.39 964.637 1696.41 975.702 1661.87 985.016 1627.27 989.832 1609.56 994.747 1591.86 999.543 1574.14 1008.48 1534.05 1011.66 1492.38 1026.55 1453.83 1029.87 1445.95 1034.47 1438.08 1041.91 1433.45 1049.38 1428.9 1059.88 1428.98 1066.61 1434.92 1072.98 1440.44 1075.74 1448.75 1078.23 1456.53 1086.61 1484.95 1090.69 1514.34 1095.84 1543.46 1103.9 1587.71 1114.75 1631.44 1127.59 1674.54 1149.52 1618.93 1167.25 1561.73 1182.33 1503.92 1187.39 1483.56 1189.02 1461.95 1198.77 1443.05Z" fill="#1A2F93" fill-rule="evenodd"/><path d="M2293.77 1436.18C2308.49 1431.12 2325.83 1443.02 2325.93 1458.48 2327.04 1472.13 2314.34 1484.64 2300.66 1483.97 2287.94 1484.05 2276.19 1473.07 2276.03 1460.36 2275.45 1449.48 2283.36 1439.25 2293.77 1436.18Z" fill="#1A2F93" fill-rule="evenodd"/><path d="M2430.86 1473.95C2431.91 1460.51 2448.26 1452 2460.16 1457.91 2467.5 1461.34 2470.69 1469.56 2472.66 1476.91 2476.8 1494.98 2474.27 1513.61 2474.61 1531.94 2494.52 1529.57 2515 1526.25 2534.79 1531.11 2550.33 1536.57 2550.81 1560.99 2537.51 1569.22 2530.51 1573.77 2521.73 1572.16 2513.89 1571.92 2501.15 1570.81 2488.52 1573.35 2475.92 1574.74 2477.04 1623.37 2479.13 1672 2480.22 1720.63 2480.08 1734.17 2480.28 1748.98 2472.44 1760.67 2465.43 1770.91 2449.17 1769.87 2441.51 1760.98 2434.52 1754.01 2436.93 1743.37 2436.85 1734.52 2439 1701.4 2436.55 1668.28 2435.59 1635.16 2434.92 1615.2 2434.24 1595.24 2433.54 1575.28 2417.06 1574.15 2400.54 1573.33 2384.18 1571.15 2375.18 1570.23 2367.5 1562.74 2367.26 1553.55 2365.39 1541.94 2373.91 1528.64 2386.45 1528.82 2401.83 1529.36 2417.14 1531.22 2432.51 1532.18 2432.75 1512.76 2430.2 1493.37 2430.86 1473.95Z" fill="#1A2F93" fill-rule="evenodd"/><path d="M1713.18 1514.83C1723.88 1510.66 1738.44 1507.95 1747.24 1517.35 1753.73 1523.75 1752.32 1533.49 1753.73 1541.71 1755.33 1553.67 1760.69 1566.08 1756.32 1578.02 1751.28 1591.24 1731.38 1594.54 1722.18 1584.07 1717.15 1576.87 1717 1567.67 1715.23 1559.36 1700 1563.43 1684.97 1568.16 1669.98 1573.04 1653.7 1578.91 1633.56 1588.39 1631.7 1607.98 1645.19 1612.26 1659.37 1613.63 1672.98 1617.56 1694.72 1623.44 1717.19 1631.63 1732.84 1648.65 1748.55 1665.16 1753.97 1689.49 1750.74 1711.66 1748.51 1726.71 1739.63 1740.41 1727.14 1748.95 1706.95 1763.19 1681.47 1767.1 1657.3 1767 1636.41 1766.82 1615.46 1762.5 1596.47 1753.73 1586.06 1748.74 1575.34 1740.73 1573.44 1728.53 1570.47 1715.41 1582.94 1702.3 1595.97 1703.23 1605.76 1704.7 1610.69 1715.09 1619.97 1717.75 1642.38 1724.65 1666.89 1726.41 1689.62 1719.93 1697.87 1717.49 1707.28 1712.99 1709.62 1703.87 1711.65 1692.17 1706.04 1680.05 1696.7 1673.03 1680.82 1660.8 1660.08 1659.55 1641.37 1654.61 1626.73 1650.75 1610.75 1646.76 1600.19 1635.1 1588.52 1621.78 1588.71 1602.27 1592.61 1585.93 1597.18 1566.42 1612.43 1551.05 1630.29 1542.96 1656.96 1530.83 1686.33 1526.47 1713.18 1514.83Z" fill="#1A2F93" fill-rule="evenodd"/><path d="M1860.29 1540.44C1880.57 1530.93 1903.34 1527.34 1925.62 1528.1 1931.95 1528.08 1936.85 1532.32 1940.97 1536.61 1945.85 1533.24 1950.9 1528.87 1957.23 1529.05 1968.95 1529.15 1978.37 1540.6 1977.99 1551.99 1978.01 1592.48 1975.69 1632.96 1972.12 1673.28 1966.81 1730.11 1956.42 1786.56 1955.74 1843.76 1955.5 1851.12 1956.24 1859.45 1951.18 1865.51 1945.01 1873.5 1933.04 1874.83 1924.27 1870.76 1918.39 1868.01 1915.29 1861.64 1914.4 1855.49 1912.67 1843.6 1914.6 1831.66 1915.91 1819.85 1918.52 1799.02 1919.69 1778.04 1921.72 1757.15 1895.5 1765.42 1866.61 1762.01 1841.71 1751.04 1815.83 1739.45 1796.03 1714.91 1791.68 1686.69 1787.82 1660.14 1790.65 1632.52 1799.79 1607.31 1810.5 1578.44 1832.27 1553.53 1860.29 1540.44M1853.67 1597.4C1837.19 1619.51 1831.06 1648.04 1832.97 1675.24 1834.53 1695.44 1848.35 1714.21 1867.57 1720.96 1878.45 1724.51 1890.33 1726.08 1901.67 1723.84 1913.79 1721.16 1921.84 1710.15 1925.62 1698.97 1932.27 1679.17 1933.59 1658.12 1934.6 1637.43 1935.04 1613.34 1936.77 1589.29 1937.82 1565.22 1928.44 1566.47 1919.1 1564.55 1909.72 1564.74 1887.69 1567.48 1866.81 1579.41 1853.67 1597.4Z" fill="#1A2F93" fill-rule="evenodd"/><path d="M2038.15 1533.64C2048.57 1521.11 2072.87 1527.32 2074.92 1543.84 2076.14 1558.37 2072.79 1572.81 2071.17 1587.2 2068.36 1605.19 2069.09 1623.45 2069.59 1641.58 2070.61 1665.75 2071.91 1690.23 2078.57 1713.63 2086.69 1717.53 2095.25 1721.08 2104.43 1721.26 2125.47 1721.74 2146.4 1717.91 2166.59 1712.2 2167.11 1658.42 2163.6 1604.44 2169.72 1550.88 2170.46 1543.96 2172.08 1536.23 2178.12 1531.89 2188.04 1525.24 2203.7 1527.87 2209.62 1538.63 2212.14 1542.57 2212.08 1547.37 2211.96 1551.85 2210.76 1578.26 2209.26 1604.68 2208.28 1631.11 2208.19 1660.8 2208.66 1690.48 2208.64 1720.19 2208.42 1731.96 2211.14 1743.75 2209.5 1755.48 2206.67 1768.78 2189.29 1775.16 2177.98 1768.07 2171.9 1764.34 2169.68 1757.27 2167.49 1750.96 2145.02 1762.2 2119.29 1766.12 2094.35 1764 2075.8 1762.3 2056.75 1754.45 2045.65 1739 2038.57 1729.52 2035.76 1717.77 2034.36 1706.28 2027.92 1658.52 2023.43 1609.83 2030.85 1561.92 2032.65 1552.42 2032.27 1541.82 2038.15 1533.64Z" fill="#1A2F93" fill-rule="evenodd"/><path d="M1381.54 1557.88C1397.92 1540.92 1421.14 1531.24 1444.64 1531.02 1468.28 1530.72 1493.52 1533.8 1513.27 1547.96 1529.05 1559 1536.28 1580.41 1531.17 1598.9 1527.12 1611.87 1516.82 1621.73 1505.8 1629.05 1494.69 1636.13 1482.74 1641.76 1470.91 1647.5 1441.41 1661.6 1411.91 1675.68 1382.39 1689.72 1393.01 1705.96 1409.79 1717.91 1428.65 1722.43 1455.1 1728.91 1483.49 1723.7 1507.77 1712.05 1516.82 1708.27 1520.72 1698.72 1527.82 1692.68 1539.51 1684.19 1556.59 1696.97 1554.88 1710.48 1553.99 1725.11 1541.82 1735.61 1530.14 1742.61 1501.35 1759.03 1467.43 1767.15 1434.4 1762.87 1405.89 1760.13 1377.32 1747.18 1360.2 1723.5 1345.67 1703.97 1341.81 1678.68 1343.3 1654.88 1344.6 1619.54 1356.57 1583.53 1381.54 1557.88M1408.66 1585.12C1391.44 1602.42 1383.95 1626.76 1378.92 1650.09 1399.9 1640.18 1420.89 1630.22 1441.83 1620.22 1461.66 1610.4 1481.77 1600.48 1499.01 1586.36 1486.35 1574.94 1469.25 1570.01 1452.51 1569.54 1436.56 1568.28 1419.99 1573.57 1408.66 1585.12Z" fill="#1A2F93" fill-rule="evenodd"/><path d="M2661.51 1535.28C2682.75 1531.05 2706.58 1531.92 2724.92 1544.68 2746.27 1559.41 2757.35 1584.73 2762.55 1609.4 2768.32 1639.69 2767.25 1671.91 2756.28 1700.96 2747.49 1723.14 2733.04 1744.17 2711.94 1756.13 2692.39 1767.38 2668.34 1769.61 2646.65 1764.14 2615.19 1755.66 2591.29 1728.15 2582.56 1697.32 2573.19 1663.69 2575.52 1626.42 2590.64 1594.79 2604.19 1566.05 2629.34 1541.04 2661.51 1535.28M2665.36 1578.61C2654.37 1582.01 2644.88 1589.35 2638.07 1598.55 2625.67 1615.34 2619.87 1636.32 2619.16 1657.03 2618.8 1670.09 2620.25 1683.58 2626.04 1695.45 2631.8 1707.04 2641.62 1717 2653.97 1721.35 2671.02 1727.17 2690.92 1722.64 2704.14 1710.48 2717.83 1698.71 2725.04 1680.86 2726.05 1663.09 2727.08 1643.77 2726.65 1623.87 2720.24 1605.43 2716.48 1594.45 2709.08 1584.04 2698.13 1579.49 2687.73 1575.43 2675.98 1575.57 2665.36 1578.61Z" fill="#1A2F93" fill-rule="evenodd"/><path d="M2289.3 1536.48C2296.61 1534.99 2304.87 1536.92 2309.81 1542.83 2314.17 1547.36 2315.02 1553.95 2315 1559.97 2314.84 1590.46 2311.19 1620.81 2310.8 1651.29 2310.36 1679.87 2312.62 1708.41 2312.03 1736.97 2311.77 1750.16 2297.28 1759.07 2285.17 1755.01 2276.33 1752.78 2270.37 1743.85 2270.57 1734.88 2270.31 1709.03 2269.14 1683.19 2269 1657.33 2268.9 1625.45 2273.06 1593.73 2273.22 1561.84 2271.92 1550.96 2277.64 1538.45 2289.3 1536.48Z" fill="#1A2F93" fill-rule="evenodd"/></g></svg>